<?xml version="1.0" standalone="no"?>
<!DOCTYPE svg PUBLIC "-//W3C//DTD SVG 20010904//EN"
 "http://www.w3.org/TR/2001/REC-SVG-20010904/DTD/svg10.dtd">
<svg version="1.0" xmlns="http://www.w3.org/2000/svg"
 width="572.000000pt" height="572.000000pt" viewBox="0 0 572.000000 572.000000"
 preserveAspectRatio="xMidYMid meet">
<metadata>
Created by potrace 1.14, written by Peter Selinger 2001-2017
</metadata>
<g transform="translate(0.000000,572.000000) scale(0.100000,-0.100000)"
fill="#000000" stroke="none">
<path d="M2515 5600 c-229 -28 -407 -68 -600 -133 -957 -325 -1674 -1126
-1863 -2082 -11 -55 -23 -122 -26 -150 -4 -27 -10 -81 -15 -120 -11 -88 -11
-424 0 -530 93 -871 587 -1632 1362 -2094 298 -178 702 -321 1037 -367 25 -3
47 -8 50 -9 42 -25 739 -25 779 0 4 2 33 6 66 10 82 8 296 58 430 99 724 223
1337 729 1680 1388 141 271 226 531 276 843 31 187 35 546 9 740 -56 419 -201
805 -430 1148 -120 179 -201 278 -355 432 -119 120 -339 303 -392 328 -13 6
-23 13 -23 17 0 4 -13 13 -30 20 -16 7 -30 16 -30 21 0 5 -4 9 -10 9 -5 0 -33
15 -62 34 -71 45 -215 120 -291 152 -34 14 -82 35 -107 46 -140 64 -476 160
-603 172 -26 3 -50 7 -54 9 -5 3 -37 8 -73 12 -36 4 -74 9 -85 12 -11 3 -126
6 -255 8 -183 3 -268 -1 -385 -15z"/>
</g>
</svg>
